# xmcd
#
# Track frame offsets:
#	150
#	30960
#	44099
#	57686
#	71746
#	83672
#	97093
#	109988
#	122647
#	136260
#	150439
#	164224
#	174898
#	186715
#	199704
#	212639
#	225356
#	238066
#	250456
#	262457
#
# Disc length: 3682 seconds
#
# Revision: 2
# Processed by: cddbd v1.5.2PL0 Copyright (c) Steve Scherf et al.
# Submitted via: FairStars CD Ripper 1.90
#
DISCID=2e0e6014
DTITLE=Various Artist - 100 Hits - Blues Disc 4
DYEAR=2019
DGENRE=Blues
TTITLE0=Jimmy Witherspoon - Ain't Nobody's Business
TTITLE1=Arthur 'Big Boy' Crudup - That's All Right Mama
TTITLE2=Buddy Guy - Sit and Cry
TTITLE3=Muddy Waters - Rollin' Stone
TTITLE4=Buddy Guy - You Sure Can't Do
TTITLE5=Muddy Waters - Rollin' and Tumblin'
TTITLE6=Jimmy Witherspoon - Then the Lights Go Out
TTITLE7=Elmore James - The Sky Is Crying
TTITLE8=Albert King - Travelin' to California
TTITLE9=Mississippi Fred McDowell - Highway Blues
TTITLE10=Magic Sam and Shakey Jake Harris - Call Me if You Need Me
TTITLE11=Smokey Hogg - Good Morning Little School Girl
TTITLE12=Bobby "Blue" Bland - Turn on Your Lovelight
TTITLE13=Junior Wells - I Could Cry
TTITLE14=Muddy Waters - I Got My Mojo Working
TTITLE15=Albert King - Dyna Flow
TTITLE16=Magic Sam - Everything Gonna Be Alright
TTITLE17=Arthur Alexander - You Better Move On
TTITLE18=Big Joe Turner - Poor Lover's Blues
TTITLE19=Slim Harpo - I'm a King Bee
EXTD=YEAR: 0
EXTT0=
EXTT1=
EXTT2=
EXTT3=
EXTT4=
EXTT5=
EXTT6=
EXTT7=
EXTT8=
EXTT9=
EXTT10=
EXTT11=
EXTT12=
EXTT13=
EXTT14=
EXTT15=
EXTT16=
EXTT17=
EXTT18=
EXTT19=
PLAYORDER=
